<?xml version="1.0" encoding="UTF-8" standalone="no"?>
<!-- Created with Inkscape (http://www.inkscape.org/) -->

<svg
   xmlns:dc="http://purl.org/dc/elements/1.1/"
   xmlns:cc="http://creativecommons.org/ns#"
   xmlns:rdf="http://www.w3.org/1999/02/22-rdf-syntax-ns#"
   xmlns:svg="http://www.w3.org/2000/svg"
   xmlns="http://www.w3.org/2000/svg"
   xmlns:sodipodi="http://sodipodi.sourceforge.net/DTD/sodipodi-0.dtd"
   xmlns:inkscape="http://www.inkscape.org/namespaces/inkscape"
   width="159.07907mm"
   height="111.41328mm"
   viewBox="0 0 563.666 394.77145"
   id="svg2"
   version="1.1"
   inkscape:version="0.91 r13725"
   sodipodi:docname="manu.svg">
  <defs
     id="defs4" />
  <sodipodi:namedview
     id="base"
     pagecolor="#ffffff"
     bordercolor="#666666"
     borderopacity="1.0"
     inkscape:pageopacity="0.0"
     inkscape:pageshadow="2"
     inkscape:zoom="0.98994949"
     inkscape:cx="121.2582"
     inkscape:cy="47.705407"
     inkscape:document-units="px"
     inkscape:current-layer="layer1"
     showgrid="false"
     fit-margin-top="0"
     fit-margin-left="0"
     fit-margin-right="0"
     fit-margin-bottom="0"
     inkscape:window-width="1920"
     inkscape:window-height="1056"
     inkscape:window-x="1920"
     inkscape:window-y="24"
     inkscape:window-maximized="1" />
  <metadata
     id="metadata7">
    <rdf:RDF>
      <cc:Work
         rdf:about="">
        <dc:format>image/svg+xml</dc:format>
        <dc:type
           rdf:resource="http://purl.org/dc/dcmitype/StillImage" />
        <dc:title></dc:title>
      </cc:Work>
    </rdf:RDF>
  </metadata>
  <g
     inkscape:label="Capa 1"
     inkscape:groupmode="layer"
     id="layer1"
     transform="translate(195.9702,-479.60651)">
    <path
       style="opacity:1;fill:#000000;fill-opacity:1;stroke:none;stroke-width:25;stroke-miterlimit:4;stroke-dasharray:none;stroke-dashoffset:0;stroke-opacity:1"
       d="m -157.58348,479.60651 c -21.26573,0 -38.38672,17.11903 -38.38672,38.38476 0,21.26573 17.12099,38.38672 38.38672,38.38672 l 486.89258,0 c 21.26573,0 38.38672,-17.12099 38.38672,-38.38672 0,-21.26573 -17.12099,-38.38476 -38.38672,-38.38476 l -486.89258,0 z m 0,158 c -21.26573,0 -38.38672,17.11903 -38.38672,38.38476 0,21.26573 17.12099,38.38672 38.38672,38.38672 l 323.24805,0 c 21.26573,0 38.38672,-17.12099 38.38672,-38.38672 0,-21.26573 -17.12099,-38.38476 -38.38672,-38.38476 l -323.24805,0 z m 0,160 c -21.26573,0 -38.38672,16.72384 -38.38672,37.49805 l 0,1.7734 c 0,20.7742 17.12099,37.5 38.38672,37.5 l 423.25391,0 c 21.26573,0 38.38477,-16.7258 38.38477,-37.5 l 0,-1.7734 c 0,-20.77421 -17.11904,-37.49805 -38.38477,-37.49805 l -423.25391,0 z"
       id="rect23355"
       inkscape:connector-curvature="0" />
  </g>
</svg>
