<svg xmlns="http://www.w3.org/2000/svg" width="1000" height="1000" viewBox="0 0 1000 1000"><defs><linearGradient id="b"><stop offset="0" stop-color="#fff"/><stop offset="1" stop-color="#fff" stop-opacity="0"/></linearGradient><linearGradient id="a"><stop offset="0" stop-color="#fff"/><stop offset="1" stop-color="#fff" stop-opacity="0"/></linearGradient></defs><path d="M850.877 90.986c38.966 26.834 91.302 107.15 117.932 229.11 38.158 174.766 1.99 268.265 1.99 268.265s.807 51.982-61.738 65.43c-62.545 13.448-197.535 41.91-250.742 50.328-53.207 8.418-80.617 11.57-80.617 11.57s-10.88 25.412 36.112 60.92c38.39 29.006 127.14 45.892 127.14 45.892s-141.178 28.705-232.24.03C411.09 791.788 381.45 742 381.45 742s-98.128 13.157-142.962-12.91C209.324 712.134 171.493 597.575 151 439.754c-20.492-157.82-16.163-209.43 24.152-234.756 40.315-25.327 168.787-70.522 316.898-96.324 148.11-25.8 319.86-44.522 358.827-17.688z" fill="#7cbee7"/><path d="M867.858 25.404c38.463 30.118 89.255 117.932 113.508 249.36 34.753 188.336-3.272 287.042-3.272 287.042s-.212 55.634-63.06 67.75c-62.847 12.118-198.477 37.668-251.882 44.743-53.405 7.074-80.894 9.45-80.894 9.45s-11.385 26.79 34.94 66.477c37.842 32.422 126.315 53.705 126.315 53.705s-141.827 25.585-232.382-8.392c-97.08-36.427-125.762-90.76-125.762-90.76s-98.446 10.513-142.796-18.997C213.724 666.587 178.117 542.67 160.71 373.1c-17.41-169.566-12.064-224.616 28.773-250.246 40.836-25.63 170.273-69.317 318.98-91.545C657.174 9.08 829.394-4.716 867.86 25.403z" fill="#d4e7f3" stroke="#99ccec" stroke-width="5"/><path d="M630.12 56.927C569.18 67.48 507.3 73.117 446.865 86.2c-4.84 2.38-7.57 7.547-11.047 11.1-15.8-.37-27.896 12.256-34.715 25.218-32.85 46.456-70.295 90.112-99.955 138.695-1.508 5.32.096 11.216.714 16.337-10.625 11.315-9.378 28.59-5.11 42.47 9.342 55.977 13.798 112.966 27.52 168.086 2.12 4.783 8.475 6.537 10.713 10.344-.083 15.074 11.79 26.875 24.39 33.218 46.71 33.282 90.81 70.85 139.802 100.775 5.604 1.676 11.612-.328 16.924-1.247 11.804 10.197 28.782 8.136 42.715 4.197 55.554-9.115 111.97-13.818 166.754-27.08 4.672-1.867 5.914-8.43 10.305-9.69 15.234-.422 26.55-12.712 33.078-25.324 33.19-46.505 70.656-90.41 100.307-139.32 1.97-5.525-1.63-11.416-1.138-16.623 10.142-11.44 8.486-28.254 4.534-41.94-9.085-55.603-14.09-112-26.974-166.898-2.107-4.943-8.068-7.042-10.623-11.246 0-15.015-11.902-26.638-24.426-33.023-46.508-33.21-90.692-70.5-139.396-100.612-5.42-1.99-11.64.852-16.734.17-6.693-5.558-15.733-8.457-24.387-6.88zM518.093 236.074c17.027 4.023 32.87 14.09 50.674 13.958 18.157-1.836 30.056-17.422 44.963-26.217 4.93-6.227 5.95 3.13 8.363 6.545 6.39 12.5 11.058 26.77 21.54 36.414 13.536 10.133 31.49 7.966 47.13 12.15 2.102.55 7.89-.294 5.065 3.57-4.75 15.624-12.206 30.858-13.637 47.21.89 18.097 16.675 29.914 25.05 44.57.857 2.696 7.236 6.713 1.82 7.808-14.696 7.635-31.268 13.255-43.194 24.868-10.417 14.214-8.123 32.973-12.45 49.276-.12 1.825-.203 5.157-2.597 2.608-16.765-4.705-32.95-14.318-50.84-13.362-16.984 3.14-28.44 17.72-42.83 26.146-2.1 1.63-5.183 4.86-6.003.34-7.817-13.53-11.814-29.88-22.992-41.14-8.377-7.88-19.905-9.956-30.956-10.51-8.194-1.273-16.332-2.864-24.49-4.358 4.55-16.023 12.197-31.448 14.458-47.955.453-15.39-10.866-27.097-19.446-38.567-2.657-4.677-8.133-10.04-9.05-14.335 13.745-7.654 29.162-12.82 41.764-22.27 10.813-10 12.285-25.442 13.698-39.25 1.063-5.907 2.197-11.805 3.262-17.712l.698.214z" stroke-width="14.929" fill="#fff"/><path d="M642.195 79.77c-3.8-4.008-8.436-2.874-8.436-2.874L460.65 102.628s-4.924.35-7.372 5.265c-2.447 4.916.02 9.076.02 9.076l53.617 91.52s.914 1.366 2.403 2.586c1.49 1.22 3.142 1.93 3.142 1.93l51.557 17.168s1.683.523 3.82.246c2.137-.277 4.188-1.565 4.188-1.565l44.078-31.213s1.447-1.02 2.6-2.762c1.153-1.74 1.46-3.263 1.46-3.263l24.62-103.076s1.21-4.76-2.59-8.77z" fill="#304392"/><path d="M434.903 117.41c-5.523-.147-7.998 3.933-7.998 3.933l-104.21 140.6s-3.235 3.73-1.49 8.936c1.746 5.206 6.43 6.403 6.43 6.403l102.63 26.802s1.612.32 3.528.13 3.587-.857 3.587-.857l48.595-24.317s1.56-.82 2.876-2.527c1.316-1.707 1.856-4.07 1.856-4.07l9.097-53.237s.3-1.745-.115-3.79c-.415-2.047-1.275-3.34-1.275-3.34l-55.477-90.295s-2.51-4.22-8.033-4.37z" fill="#b4d35f"/><path d="M316.752 291.076c-4.01 3.8-2.875 8.435-2.875 8.435l25.733 173.11s.35 4.923 5.265 7.37c4.915 2.448 9.075-.018 9.075-.018l91.52-53.618s1.367-.914 2.588-2.404c1.22-1.49 1.93-3.14 1.93-3.14l17.167-51.558s.524-1.684.246-3.82c-.276-2.14-1.564-4.19-1.564-4.19l-31.212-44.077s-1.022-1.447-2.762-2.6-3.264-1.46-3.264-1.46l-103.076-24.62s-4.76-1.21-8.77 2.59zM824.583 215.587c4.94 2.47 5.204 7.234 5.204 7.234l25.733 173.11s1.098 4.81-2.894 8.583c-3.99 3.77-8.688 2.622-8.688 2.622l-103.16-24.68s-1.573-.476-3.174-1.546c-1.6-1.07-2.76-2.445-2.76-2.445L703.42 334.13s-.99-1.458-1.347-3.584c-.356-2.125.28-4.462.28-4.462l17.04-51.25s.558-1.682 1.888-3.292c1.33-1.61 2.697-2.346 2.697-2.346l91.458-53.537s4.203-2.543 9.145-.073z" fill="#a9305e"/><path d="M717.67 587.51c-2.47 4.942-7.234 5.205-7.234 5.205L537.33 618.448s-4.814 1.098-8.585-2.894c-3.772-3.99-2.622-8.688-2.622-8.688l24.678-103.16s.478-1.573 1.548-3.174c1.07-1.6 2.445-2.76 2.445-2.76l44.333-31.422s1.46-.99 3.585-1.347c2.126-.357 4.464.28 4.464.28l51.25 17.04s1.682.558 3.29 1.888c1.61 1.33 2.347 2.698 2.347 2.698l53.538 91.458s2.543 4.203.073 9.144z" fill="#304392"/><path d="M508.46 612.248c-5.24 1.747-8.795-1.436-8.795-1.436l-140.6-104.21s-4.18-2.626-4.025-8.115c.155-5.49 4.29-7.998 4.29-7.998l90.394-55.495s1.45-.775 3.34-1.15c1.887-.376 3.68-.225 3.68-.225l53.566 9.13s1.733.332 3.488 1.583c1.755 1.25 2.958 3.353 2.958 3.353l24.19 48.29s.794 1.583.992 3.66c.198 2.08-.25 3.567-.25 3.567L514.876 605.73s-1.174 4.77-6.414 6.518zM661.61 83.71c5.242-1.747 8.797 1.436 8.797 1.436l140.6 104.21s4.18 2.626 4.025 8.116c-.155 5.49-4.29 7.997-4.29 7.997l-90.394 55.493s-1.45.775-3.34 1.15c-1.887.377-3.68.225-3.68.225l-53.567-9.13s-1.73-.332-3.486-1.583c-1.755-1.25-2.958-3.353-2.958-3.353l-24.19-48.29s-.794-1.583-.992-3.66c-.198-2.08.25-3.567.25-3.567l26.813-102.527s1.174-4.77 6.414-6.517z" fill="#de5d4a"/><path d="M735.17 578.547c5.522.148 7.997-3.93 7.997-3.93l104.21-140.603s3.235-3.728 1.49-8.935c-1.746-5.208-6.43-6.405-6.43-6.405l-102.63-26.8s-1.612-.32-3.528-.13c-1.917.19-3.588.855-3.588.855l-48.595 24.317s-1.56.82-2.876 2.528c-1.314 1.708-1.854 4.07-1.854 4.07l-9.097 53.237s-.302 1.746.114 3.792c.415 2.046 1.275 3.34 1.275 3.34l55.476 90.294s2.51 4.222 8.033 4.37z" fill="#b4d35f"/><g><path d="M94.813 590.014C73.363 604 43.95 646.738 27.878 712.358c-23.034 94.03-4.744 145.11-4.744 145.11s-1.146 28.113 32.508 36.243c33.655 8.132 106.3 25.375 134.97 30.657 28.672 5.28 43.458 7.36 43.458 7.36s5.54 13.898-20.37 32.466c-21.165 15.17-69.412 23.092-69.412 23.092s75.988 17.46 125.647 3.19c53.238-15.298 69.955-41.83 69.955-41.83s52.91 8.46 77.522-5.03c16.01-8.776 38.043-70.24 51.287-155.344 13.242-85.104 11.605-113.085-9.86-127.338-21.466-14.254-90.355-40.46-170.134-56.444-79.78-15.983-172.445-28.46-193.893-14.474z" fill="#eca54e"/><path d="M82.522 550.3C61.3 566.07 32.62 612.886 17.702 683.66c-21.375 101.42-2.15 155.342-2.15 155.342s-.646 30.103 33.19 37.517c33.837 7.414 106.867 23.09 135.664 27.648 28.797 4.557 43.636 6.22 43.636 6.22s5.794 14.648-19.81 35.487c-20.918 17.024-69.075 27.33-69.075 27.33s76.383 15.78 125.84-1.365c53.02-18.382 69.28-47.386 69.28-47.386s53.12 7.034 77.517-8.326c15.87-9.99 36.827-76.548 48.563-168.05 11.735-91.503 9.596-121.36-12.148-135.784-21.744-14.425-91.176-39.83-171.328-53.887-80.15-14.058-173.14-23.876-194.36-8.106z" fill="#f8e9cf" stroke="#f3cb98" stroke-width="5"/><path d="M354.183 602.393c15.263 3.85 29.717 13.604 39.854 26.894 16.306 21.38 22.044 50.913 16.527 85.062-6.207 38.414-21.632 73.19-47.27 106.573-12.222 15.914-31.16 34.355-48.376 47.11-10.707 7.932-27.974 18.677-29.686 18.473-.566-.067-7.55-6.82-15.516-15.006-7.968-8.186-17.167-17.622-20.443-20.968-3.277-3.347-5.987-6.5-6.023-7.008-.035-.507 3.584-2.965 8.044-5.46 14.387-8.052 34.024-23.85 47.684-38.365 12.587-13.374 25.63-32.185 32.207-46.453 3.75-8.136 7.14-17.992 6.475-18.835-.19-.242-4.477-.333-9.526-.202-8.982.234-9.37.18-17.96-2.483-19.577-6.07-33.507-19.356-40.288-38.43-11.777-33.117 3.1-70.216 34.455-85.913 15.222-7.62 32.538-9.355 49.843-4.99zm-167.738-19.99c29.98 8.35 50.987 33.415 56.678 67.63 2.517 15.13 1.558 36.607-2.486 55.64-9.24 43.494-32.968 85.998-66.583 119.277-14.548 14.4-52.132 42.077-56.5 41.604-.71-.076-7.387-6.398-14.836-14.047-7.448-7.65-16.44-16.878-19.98-20.51-3.538-3.63-6.764-7.11-7.166-7.732-.575-.887.974-2.122 7.193-5.734 37.128-21.563 70.6-58.726 83.963-93.22 2.83-7.305 3.38-11.258 1.596-11.47-.713-.085-4.355.054-8.093.308-19.474 1.323-41.648-10.784-52.662-28.754-8.696-14.188-11.657-32.458-8.054-49.702 7.302-34.947 38.1-58.16 73.355-55.293 4.955.403 11.065 1.305 13.575 2.004z" fill="#eca54e" fill-opacity=".804"/></g></svg>
