<svg xmlns="http://www.w3.org/2000/svg" height="400" width="400" viewBox="0 0 399.99998 400.00001"><path style="line-height:normal;text-indent:0;text-align:start;text-decoration-line:none;text-decoration-style:solid;text-decoration-color:#000000;text-transform:none;block-progression:tb;isolation:auto;mix-blend-mode:normal" d="M200.05 9.768L135.857 131.74 0 155.01l96.168 98.742-19.854 136.396L199.942 329.2l123.586 61.032-3.546-24.48-16.216-111.93L400 155.144l-135.84-23.36L200.05 9.77zm-.02 55.89l47.073 89.588 99.736 17.152-70.657 72.45 14.507 100.156-90.738-44.81-90.77 44.75 14.576-100.147-70.607-72.5 99.75-17.082 47.13-89.556z" color="#000" font-family="sans-serif" white-space="normal" overflow="visible" solid-color="#000000"/><path class="star-left" d="M199.152 11.47l-63.297 120.27L0 155.01l96.166 98.742-19.852 136.396 122.838-60.558V11.47z"/><path class="star-base" d="M323.527 390.232l-123.586-61.03L76.315 390.15 96.167 253.75 0 155.01l135.856-23.27L200.05 9.77l64.11 122.016L400 155.144l-96.233 98.678z"/></svg>
