<?xml version="1.0" encoding="UTF-8" standalone="no"?>
<!-- Created with Inkscape (http://www.inkscape.org/) -->

<svg
   xmlns:dc="http://purl.org/dc/elements/1.1/"
   xmlns:cc="http://creativecommons.org/ns#"
   xmlns:rdf="http://www.w3.org/1999/02/22-rdf-syntax-ns#"
   xmlns:svg="http://www.w3.org/2000/svg"
   xmlns="http://www.w3.org/2000/svg"
   xmlns:sodipodi="http://sodipodi.sourceforge.net/DTD/sodipodi-0.dtd"
   xmlns:inkscape="http://www.inkscape.org/namespaces/inkscape"
   width="133.18066mm"
   height="108.37334mm"
   viewBox="0 0 471.89999 384.00001"
   id="svg2"
   version="1.1"
   inkscape:version="0.91 r13725"
   sodipodi:docname="twitter.svg">
  <defs
     id="defs4" />
  <sodipodi:namedview
     id="base"
     borderopacity="1.0"
     inkscape:pageopacity="0.0"
     inkscape:pageshadow="2"
     inkscape:zoom="0.35"
     inkscape:cx="235.95"
     inkscape:cy="192"
     inkscape:document-units="px"
     inkscape:current-layer="layer1"
     showgrid="false"
     fit-margin-top="0"
     fit-margin-left="0"
     fit-margin-right="0"
     fit-margin-bottom="0"
     inkscape:window-width="1920"
     inkscape:window-height="1056"
     inkscape:window-x="1920"
     inkscape:window-y="24"
     inkscape:window-maximized="1" />
  <metadata
     id="metadata7">
    <rdf:RDF>
      <cc:Work
         rdf:about="">
        <dc:format>image/svg+xml</dc:format>
        <dc:type
           rdf:resource="http://purl.org/dc/dcmitype/StillImage" />
        <dc:title></dc:title>
      </cc:Work>
    </rdf:RDF>
  </metadata>
  <g
     inkscape:label="Capa 1"
     inkscape:groupmode="layer"
     id="layer1"
     transform="translate(623.80714,-340.3622)">
    <path
       id="path23330"
       d="m -151.90714,385.8622 c -17.4,7.7 -36,12.9 -55.6,15.3 20,-12 35.4,-31 42.6,-53.6 -18.7,11.1 -39.4,19.2 -61.5,23.5 -17.7,-18.9 -42.9,-30.7 -70.7,-30.7 -53.5,0 -96.8,43.4 -96.8,96.9 0,7.6 0.8,15 2.5,22.1 -80.5,-4 -151.9,-42.6 -199.6,-101.3 -8.3,14.3 -13.1,31 -13.1,48.7 0,33.6 17.2,63.3 43.2,80.7 -16,-0.4 -31,-4.8 -44,-12.1 0,0.4 0,0.8 0,1.2 0,47 33.4,86.1 77.7,95 -8.1,2.2 -16.7,3.4 -25.5,3.4 -6.2,0 -12.3,-0.6 -18.2,-1.8 12.3,38.5 48.1,66.5 90.5,67.3 -33.1,26 -74.9,41.5 -120.3,41.5 -7.8,0 -15.5,-0.5 -23.1,-1.4 42.7,27.8 93.6,43.8 148.2,43.8 178.3,0 275.7,-147.7 275.7,-275.8 0,-4.2 -0.1,-8.4 -0.3,-12.5 18.9,-13.7 35.3,-30.7 48.3,-50.2 z"
       inkscape:connector-curvature="0" />
  </g>
</svg>
